<?xml version="1.0" encoding="UTF-8" standalone="no"?>
<!-- Created with Inkscape (http://www.inkscape.org/) -->

<svg
   width="522.82336mm"
   height="318.59296mm"
   viewBox="0 0 522.82336 318.59296"
   version="1.1"
   id="svg1"
   sodipodi:docname="rakete.svg"
   xml:space="preserve"
   inkscape:export-filename="background.svg"
   inkscape:export-xdpi="96"
   inkscape:export-ydpi="96"
   xmlns:inkscape="http://www.inkscape.org/namespaces/inkscape"
   xmlns:sodipodi="http://sodipodi.sourceforge.net/DTD/sodipodi-0.dtd"
   xmlns="http://www.w3.org/2000/svg"
   xmlns:svg="http://www.w3.org/2000/svg"><sodipodi:namedview
     id="namedview1"
     pagecolor="#d6d4c5"
     bordercolor="#000000"
     borderopacity="0.25"
     inkscape:showpageshadow="2"
     inkscape:pageopacity="0.0"
     inkscape:pagecheckerboard="0"
     inkscape:deskcolor="#c2c2c2"
     inkscape:document-units="mm"
     showguides="false" /><defs
     id="defs1" /><g
     inkscape:label="Ebene 1"
     inkscape:groupmode="layer"
     id="layer1"
     transform="translate(2033.7386,502.28676)"><g
       id="g43"><path
         id="path17"
         style="fill:#666666;stroke-width:0.264583"
         d="m -1689.1059,-502.28673 c -8.8799,0.0518 -17.5257,7.0564 -24.7013,20.01222 -36.1115,4.98409 -90.0968,48.96497 -90.0968,48.96497 l -89.7496,32.18615 c 0,0 -140.0849,-4.10849 -140.085,54.01944 0.1331,34.63371 26.4101,67.00817 70.2706,86.57663 -4.9427,7.93726 -7.5087,16.21442 -7.6098,24.54785 2e-4,26.14002 88.4349,9.11107 88.4349,9.11107 0,0 17.0993,-10.13594 40.9691,-15.57217 a 85.153732,44.999939 0 0 0 -4.2509,13.74696 85.153732,44.999939 0 0 0 85.1539,44.99984 85.153732,44.999939 0 0 0 85.154,-44.99984 85.153732,44.999939 0 0 0 -0.3664,-4.12636 c 11.8158,1.11716 18.8468,1.78175 28.2701,2.6727 80.157,7.57865 136.6241,-64.88279 136.7979,-125.76855 -0.015,-66.03283 -66.7009,-121.35173 -154.3725,-128.05936 -7.0105,-11.92169 -15.3143,-18.30572 -23.8182,-18.31155 z" /><ellipse
         style="fill:#464646;fill-opacity:1;stroke-width:0.264583"
         id="path26"
         cx="-1926.0406"
         cy="-329.48074"
         rx="21.53953"
         ry="24.966274" /><ellipse
         style="fill:#464646;fill-opacity:1;stroke-width:0.264583"
         id="path27"
         cx="-1837.1901"
         cy="-363.74814"
         rx="25.700577"
         ry="23.497671" /><ellipse
         style="fill:#464646;fill-opacity:1;stroke-width:0.264583"
         id="path28"
         cx="-1692.043"
         cy="-426.16385"
         rx="22.5186"
         ry="23.742437" /><ellipse
         style="fill:#464646;fill-opacity:1;stroke-width:0.264583"
         id="path29"
         cx="-1763.2704"
         cy="-262.90399"
         rx="22.763367"
         ry="25.455811" /><ellipse
         style="fill:#464646;fill-opacity:1;stroke-width:0.264583"
         id="path30"
         cx="-1649.4535"
         cy="-332.66272"
         rx="21.53953"
         ry="21.294764" /><ellipse
         style="fill:#121212;fill-opacity:1;stroke-width:0.264583"
         id="path31"
         cx="-1763.5151"
         cy="-330.45978"
         rx="16.154648"
         ry="16.644184" /><ellipse
         style="fill:#121212;fill-opacity:1;stroke-width:0.264583"
         id="path32"
         cx="-1833.5187"
         cy="-360.81097"
         rx="10.769765"
         ry="12.23837" /><ellipse
         style="fill:#121212;fill-opacity:1;stroke-width:0.264583"
         id="path33"
         cx="-1767.6761"
         cy="-394.58884"
         rx="18.357555"
         ry="16.154648" /><ellipse
         style="fill:#121212;fill-opacity:1;stroke-width:0.264583"
         id="path34"
         cx="-1707.2186"
         cy="-287.62552"
         rx="12.23837"
         ry="11.993602" /></g></g></svg>
