<?xml version="1.0" encoding="UTF-8" standalone="no"?>
<!-- Created with Inkscape (http://www.inkscape.org/) -->

<svg
   width="1268.874mm"
   height="1230.059mm"
   viewBox="0 0 1268.874 1230.059"
   version="1.1"
   id="svg1"
   sodipodi:docname="rakete.svg"
   xml:space="preserve"
   inkscape:export-filename="background.svg"
   inkscape:export-xdpi="96"
   inkscape:export-ydpi="96"
   xmlns:inkscape="http://www.inkscape.org/namespaces/inkscape"
   xmlns:sodipodi="http://sodipodi.sourceforge.net/DTD/sodipodi-0.dtd"
   xmlns="http://www.w3.org/2000/svg"
   xmlns:svg="http://www.w3.org/2000/svg"><sodipodi:namedview
     id="namedview1"
     pagecolor="#d6d4c5"
     bordercolor="#000000"
     borderopacity="0.25"
     inkscape:showpageshadow="2"
     inkscape:pageopacity="0.0"
     inkscape:pagecheckerboard="0"
     inkscape:deskcolor="#c2c2c2"
     inkscape:document-units="mm"
     showguides="false" /><defs
     id="defs1" /><g
     inkscape:label="Ebene 1"
     inkscape:groupmode="layer"
     id="layer1"
     transform="translate(4208.2518,1534.644)"><g
       id="g47"><path
         id="rect43"
         style="fill:#c71f00;fill-opacity:1;stroke-width:0.264583"
         d="m -3672.7005,-1329.6002 -7.8326,296.6581 -527.7188,-86.1581 421.979,233.99747 -421.979,275.1187 h 256.5162 l 223.2279,-113.57203 -55.6916,192.83643 185.8528,-205.8994 171.3925,306.78385 3.9163,-276.09779 483.66,-1.95814 -285.8883,-272.18141 109.656,-195.81388 -409.2511,319.17692 164.4837,-340.71622 -191.8976,181.1277 z m 329.9461,707.8672"
         sodipodi:nodetypes="cccccccccccccccccc" /><path
         id="rect43-5"
         style="fill:#ef8015;fill-opacity:1;stroke-width:0.264583"
         d="m -3079.5438,-738.8469 -263.5361,-136.44068 307.7042,-437.29682 -394.6196,277.6625 -63.5167,-499.7221 -111.8839,230.8302 4.835,250.4115 -149.236,-134.2238 104.219,257.04903 -350.8201,20.4213 246.7428,123.94885 -209.1944,436.08317 369.6218,-138.54459 128.3779,184.08319 -108.7146,-507.48544 234.8565,296.62235 -79.2913,-251.68397 z m -780.897,-11.84097"
         sodipodi:nodetypes="cccccccccccccccccc" /></g></g></svg>
