<?xml version="1.0" encoding="UTF-8" standalone="no"?>
<!-- Created with Inkscape (http://www.inkscape.org/) -->

<svg
   width="135.63048mm"
   height="134.26093mm"
   viewBox="0 0 135.63048 134.26093"
   version="1.1"
   id="svg1"
   sodipodi:docname="rakete.svg"
   xml:space="preserve"
   inkscape:export-filename="background.svg"
   inkscape:export-xdpi="96"
   inkscape:export-ydpi="96"
   xmlns:inkscape="http://www.inkscape.org/namespaces/inkscape"
   xmlns:sodipodi="http://sodipodi.sourceforge.net/DTD/sodipodi-0.dtd"
   xmlns="http://www.w3.org/2000/svg"
   xmlns:svg="http://www.w3.org/2000/svg"><sodipodi:namedview
     id="namedview1"
     pagecolor="#d6d4c5"
     bordercolor="#000000"
     borderopacity="0.25"
     inkscape:showpageshadow="2"
     inkscape:pageopacity="0.0"
     inkscape:pagecheckerboard="0"
     inkscape:deskcolor="#c2c2c2"
     inkscape:document-units="mm"
     showguides="false" /><defs
     id="defs1" /><g
     inkscape:label="Ebene 1"
     inkscape:groupmode="layer"
     id="layer1"
     transform="translate(3161.9092,2016.0954)"><g
       id="g99"><path
         id="path10-8-4-8-4"
         style="fill:#da5bff;stroke:#000000;stroke-width:2"
         d="m -3027.2788,-1948.9648 a 66.815216,66.130432 0 0 1 -66.8152,66.1304 66.815216,66.130432 0 0 1 -66.8152,-66.1304 66.815216,66.130432 0 0 1 66.8152,-66.1305 66.815216,66.130432 0 0 1 66.8152,66.1305 z" /><g
         id="g98"><path
           id="rect85"
           style="fill:#c400fc;stroke-width:0.264583"
           d="m -3090.6917,-1985.4224 c -10.8574,-2.4402 -31.5936,7.4565 -32.4929,7.6646 -16.0832,3.7224 -26.9136,-5.4145 -26.9136,-5.4145 0,0 -4.5479,7.8324 -6.1069,12.1381 -1.4699,4.0597 -2.9818,12.9579 -2.9818,12.9579 0,0 52.5016,-6.4199 72.9952,0 3.193,1.0002 11.752,-11.8791 20.1634,-13.5862 10.2194,-2.074 34.8314,3.5481 34.8314,3.5481 0,0 -2.2012,-6.1391 -3.6479,-9.1222 -1.3513,-2.7863 -4.7463,-8.1858 -4.7463,-8.1858 0,0 -30.9993,4.5178 -51.1006,0 z"
           sodipodi:nodetypes="sscscsscscs" /><path
           id="rect86"
           style="fill:#c400fc;stroke-width:0.264583"
           d="m -3074.8557,-1925.9702 c -9.4364,-2.1772 -30.1096,1.2646 -41.4519,4.5866 -12.6482,3.7045 -37.3726,0 -37.3726,0 0,0 2.5651,5.393 4.2017,7.8792 1.6438,2.4972 5.6007,7.0052 5.6007,7.0052 0,0 23.7315,-4.674 39.9452,-3.9808 12.1445,0.5193 17.9973,-5.1301 26.9141,-0.6923 6.0372,3.0047 32.5967,4.6731 32.5967,4.6731 0,0 5.702,-5.9447 9.1683,-13.2905 3.6664,-7.7699 3.7257,-9.7286 3.7257,-9.7286 0,0 -34.6115,5.5591 -43.3279,3.5481 z"
           sodipodi:nodetypes="sscscsscscs" /><path
           id="rect87"
           style="fill:#c400fc;stroke-width:0.264583"
           d="m -3159.7929,-1950.8068 c 0,0 14.2033,6.7614 35.4375,3.5481 6.8623,-1.0385 96.0484,-3.5481 96.0484,-3.5481 0,0 0.1016,3.929 -0.016,5.8935 -0.1171,1.9586 -0.6879,5.8758 -0.6879,5.8758 0,0 -45.2099,-6.8319 -60.9025,-2.1635 -22.2817,6.6287 -69.1008,2.1635 -69.1008,2.1635 0,0 -0.6674,-3.546 -0.7847,-5.319 -0.1423,-2.1501 0.01,-6.4503 0.01,-6.4503 z"
           sodipodi:nodetypes="cscscscsc" /></g></g></g></svg>
