<?xml version="1.0" encoding="UTF-8" standalone="no"?>
<!-- Created with Inkscape (http://www.inkscape.org/) -->

<svg
   width="135.63048mm"
   height="134.26093mm"
   viewBox="0 0 135.63048 134.26093"
   version="1.1"
   id="svg1"
   sodipodi:docname="rakete.svg"
   xml:space="preserve"
   inkscape:export-filename="background.svg"
   inkscape:export-xdpi="96"
   inkscape:export-ydpi="96"
   xmlns:inkscape="http://www.inkscape.org/namespaces/inkscape"
   xmlns:sodipodi="http://sodipodi.sourceforge.net/DTD/sodipodi-0.dtd"
   xmlns="http://www.w3.org/2000/svg"
   xmlns:svg="http://www.w3.org/2000/svg"><sodipodi:namedview
     id="namedview1"
     pagecolor="#d6d4c5"
     bordercolor="#000000"
     borderopacity="0.25"
     inkscape:showpageshadow="2"
     inkscape:pageopacity="0.0"
     inkscape:pagecheckerboard="0"
     inkscape:deskcolor="#c2c2c2"
     inkscape:document-units="mm"
     showguides="false" /><defs
     id="defs1" /><g
     inkscape:label="Ebene 1"
     inkscape:groupmode="layer"
     id="layer1"
     transform="translate(3162.8399,2204.3537)"><g
       id="g64"><ellipse
         style="fill:#ffd65b;fill-opacity:1;stroke:#000000;stroke-width:2;stroke-dasharray:none;stroke-opacity:1"
         id="path10-8-4-8"
         cx="-3095.0247"
         cy="-2137.2231"
         rx="66.815216"
         ry="66.130432" /><path
         id="rect60"
         style="fill:#f7c739;stroke-width:0.264583"
         d="m -3133.7231,-2176.4956 c 4.3156,-8.0214 14.647,-19.1136 22.8027,-15.0577 10.067,5.0065 12.5334,29.3157 2.1635,33.66 -5.2807,2.2123 -5.7243,-12.5694 -11.4447,-12.8077 -6.2027,-0.2583 -7.8187,15.261 -13.5215,12.8077 -5.6961,-2.4504 -2.9379,-13.1417 0,-18.6023 z"
         sodipodi:nodetypes="ssssss" /><path
         id="rect61"
         style="fill:#f7c739;stroke-width:0.264583"
         d="m -3115.269,-2116.095 c 5.2217,-5.2217 10.3234,15.3388 15.5451,20.5605 6.6903,6.6903 25.5374,5.5396 18.8471,12.2299 -5.2217,5.2217 -29.1705,0.8159 -34.3922,-4.4058 -6.6903,-6.6903 -6.6903,-21.6943 0,-28.3846 z"
         sodipodi:nodetypes="sssss" /><path
         id="rect62"
         style="fill:#f7c739;stroke-width:0.264583"
         d="m -3056.7171,-2170.0629 c 4.1611,-4.161 9.699,9.4236 13.86,13.5846 2.8396,2.8396 -13.1402,4.594 -10.525,7.6415 6.7311,7.8435 -7.6109,2.1323 -10.0408,10.1435 -3.0268,9.9793 20.7446,30.541 19.342,31.9436 -2.2347,2.2347 -17.8246,-2.2029 -20.9849,-2.2029 -2.7243,0 -13.6174,-44.1074 -11.3551,-42.5895 6.3232,4.2426 14.1557,-12.9727 19.7038,-18.5208 z"
         sodipodi:nodetypes="ssssssss" /><path
         id="rect63"
         style="fill:#f7c739;stroke-width:0.264583"
         d="m -3146.6373,-2151.6965 c 1.8799,-1.8799 3.1159,14.1329 10.1083,14.2659 8.1812,0.1556 22.2559,-15.2416 24.4554,-13.0421 2.9413,2.9413 -7.1688,8.7514 -11.6935,17.1357 -3.4454,6.384 -0.8753,15.7004 -3.1149,17.9401 -4.0794,4.0794 -13.473,-5.2218 -17.5524,-9.3012 -5.1809,-5.1809 -7.3838,-21.8175 -2.2029,-26.9984 z"
         sodipodi:nodetypes="sssssss" /><path
         id="rect64"
         style="fill:#f7c739;stroke-width:0.264583"
         d="m -3090.5501,-2185.0729 c 2.6924,-2.6925 17.5422,-3.3044 20.2347,-0.6119 9.0718,9.0718 -7.228,2.8663 -11.1824,17.6011 -2.8562,10.6428 -0.1332,42.2572 -6.6856,48.8097 -2.6925,2.6924 -13.5036,-5.0178 -16.1961,-7.7102 -7.5449,-7.5449 10.8922,-12.6511 10.8922,-23.3212 0,-11.426 -5.1422,-26.6881 2.9372,-34.7675 z"
         sodipodi:nodetypes="sssssss" /></g></g></svg>
