<?xml version="1.0" encoding="UTF-8" standalone="no"?>
<!-- Created with Inkscape (http://www.inkscape.org/) -->

<svg
   width="442.72174mm"
   height="483.11429mm"
   viewBox="0 0 442.72174 483.11429"
   version="1.1"
   id="svg1"
   sodipodi:docname="rakete.svg"
   xml:space="preserve"
   inkscape:export-filename="background.svg"
   inkscape:export-xdpi="96"
   inkscape:export-ydpi="96"
   xmlns:inkscape="http://www.inkscape.org/namespaces/inkscape"
   xmlns:sodipodi="http://sodipodi.sourceforge.net/DTD/sodipodi-0.dtd"
   xmlns="http://www.w3.org/2000/svg"
   xmlns:svg="http://www.w3.org/2000/svg"><sodipodi:namedview
     id="namedview1"
     pagecolor="#d6d4c5"
     bordercolor="#000000"
     borderopacity="0.25"
     inkscape:showpageshadow="2"
     inkscape:pageopacity="0.0"
     inkscape:pagecheckerboard="0"
     inkscape:deskcolor="#868686"
     inkscape:document-units="mm"
     showguides="false" /><defs
     id="defs1" /><g
     inkscape:label="Ebene 1"
     inkscape:groupmode="layer"
     id="layer1"
     transform="translate(263.17638,661.451)"><g
       inkscape:label="Ebene 1"
       id="layer1-4"
       transform="translate(-425.87244,-116.35727)"><rect
         style="fill:#191919;fill-opacity:1;stroke:#000000;stroke-width:0;stroke-dasharray:none;stroke-opacity:1"
         id="rect21"
         width="442.71036"
         height="241.83051"
         x="162.69604"
         y="-303.80994" /><ellipse
         style="fill:#191919;fill-opacity:1;stroke:#000000;stroke-width:0;stroke-dasharray:none;stroke-opacity:1"
         id="path21"
         cx="222.18524"
         cy="-263.8277"
         rx="5.5338793"
         ry="6.5023079" /><path
         id="path22"
         style="fill:#ffffff;stroke:#000000;stroke-width:0"
         d="m 195.55345,-269.37883 -1.87081,0.42768 -0.48109,2.20091 -0.53225,-2.25706 -1.81965,-0.37153 1.79534,-0.54987 0.55656,-2.07872 0.50027,2.09722 z"
         sodipodi:nodetypes="ccccccccc" /><path
         id="path22-2"
         style="fill:#ffffff;stroke:#000000;stroke-width:0"
         d="m 185.14963,-251.63597 -1.87081,0.42768 -0.48109,2.20091 -0.53225,-2.25706 -1.81965,-0.37153 1.79534,-0.54987 0.55656,-2.07872 0.50027,2.09722 z"
         sodipodi:nodetypes="ccccccccc" /><path
         id="path22-5"
         style="fill:#ffffff;stroke:#000000;stroke-width:0"
         d="m 270.53406,-267.47265 -1.87081,0.42768 -0.48109,2.20091 -0.53225,-2.25706 -1.81965,-0.37153 1.79534,-0.54987 0.55656,-2.07872 0.50027,2.09722 z"
         sodipodi:nodetypes="ccccccccc" /><path
         id="path22-7"
         style="fill:#ffffff;stroke:#000000;stroke-width:0"
         d="m 247.06213,-220.15056 -1.87081,0.42768 -0.48109,2.20091 -0.53225,-2.25706 -1.81965,-0.37153 1.79534,-0.54987 0.55656,-2.07872 0.50027,2.09722 z"
         sodipodi:nodetypes="ccccccccc" /><path
         id="path22-1"
         style="fill:#ffffff;stroke:#000000;stroke-width:0"
         d="m 230.92255,-173.31931 -1.87081,0.42768 -0.48109,2.20091 -0.53225,-2.25706 -1.81965,-0.37153 1.79534,-0.54987 0.55656,-2.07872 0.50027,2.09722 z"
         sodipodi:nodetypes="ccccccccc" /><path
         id="path22-6"
         style="fill:#ffffff;stroke:#000000;stroke-width:0"
         d="m 367.71213,-238.40681 -1.87081,0.42768 -0.48109,2.20091 -0.53225,-2.25706 -1.81965,-0.37153 1.79534,-0.54987 0.55656,-2.07872 0.50027,2.09722 z"
         sodipodi:nodetypes="ccccccccc" /><path
         id="path22-4"
         style="fill:#ffffff;stroke:#000000;stroke-width:0"
         d="m 488.09755,-213.53597 -1.87081,0.42768 -0.48109,2.20091 -0.53225,-2.25706 -1.81965,-0.37153 1.79534,-0.54987 0.55656,-2.07872 0.50027,2.09722 z"
         sodipodi:nodetypes="ccccccccc" /><path
         id="path22-21"
         style="fill:#ffffff;stroke:#000000;stroke-width:0"
         d="m 484.39338,-120.66722 -1.87081,0.42768 -0.48109,2.20091 -0.53225,-2.25706 -1.81965,-0.37153 1.79534,-0.54987 0.55656,-2.07872 0.50027,2.09722 z"
         sodipodi:nodetypes="ccccccccc" /><path
         id="path22-24"
         style="fill:#ffffff;stroke:#000000;stroke-width:0"
         d="m 234.8913,-115.64014 -1.87081,0.42768 -0.48109,2.20091 -0.53225,-2.25706 -1.81965,-0.37153 1.79534,-0.54987 0.55656,-2.07872 0.50027,2.09722 z"
         sodipodi:nodetypes="ccccccccc" /><path
         id="path22-0"
         style="fill:#ffffff;stroke:#000000;stroke-width:0"
         d="m 309.5038,-171.46722 -1.87081,0.42768 -0.48109,2.20091 -0.53225,-2.25706 -1.81965,-0.37153 1.79534,-0.54987 0.55656,-2.07872 0.50027,2.09722 z"
         sodipodi:nodetypes="ccccccccc" /><path
         id="path22-64"
         style="fill:#ffffff;stroke:#000000;stroke-width:0"
         d="m 412.95588,-189.72347 -1.87081,0.42768 -0.48109,2.20091 -0.53225,-2.25706 -1.81965,-0.37153 1.79534,-0.54987 0.55656,-2.07872 0.50027,2.09722 z"
         sodipodi:nodetypes="ccccccccc" /><path
         id="path22-20"
         style="fill:#ffffff;stroke:#000000;stroke-width:0"
         d="m 411.36838,-136.80681 -1.87081,0.42768 -0.48109,2.20091 -0.53225,-2.25706 -1.81965,-0.37153 1.79534,-0.54987 0.55656,-2.07872 0.50027,2.09722 z"
         sodipodi:nodetypes="ccccccccc" /><path
         id="path22-67"
         style="fill:#ffffff;stroke:#000000;stroke-width:0"
         d="m 275.10797,-103.99847 -1.87081,0.42768 -0.48109,2.20091 -0.53225,-2.25706 -1.81965,-0.37153 1.79534,-0.54987 0.55656,-2.07872 0.50027,2.09722 z"
         sodipodi:nodetypes="ccccccccc" /><path
         id="path22-43"
         style="fill:#ffffff;stroke:#000000;stroke-width:0"
         d="m 354.21838,-167.23389 -1.87081,0.42768 -0.48109,2.20091 -0.53225,-2.25706 -1.81965,-0.37153 1.79534,-0.54987 0.55656,-2.07872 0.50027,2.09722 z"
         sodipodi:nodetypes="ccccccccc" /><path
         id="path22-8"
         style="fill:#ffffff;stroke:#000000;stroke-width:0"
         d="m 347.6038,-112.46514 -1.87081,0.42768 -0.48109,2.20091 -0.53225,-2.25706 -1.81965,-0.37153 1.79534,-0.54987 0.55656,-2.07872 0.50027,2.09722 z"
         sodipodi:nodetypes="ccccccccc" /><path
         id="path22-49"
         style="fill:#ffffff;stroke:#000000;stroke-width:0"
         d="m 492.59547,-108.49639 -1.87081,0.42768 -0.48109,2.20091 -0.53225,-2.25706 -1.81965,-0.37153 1.79534,-0.54987 0.55656,-2.07872 0.50027,2.09722 z"
         sodipodi:nodetypes="ccccccccc" /><path
         id="path22-07"
         style="fill:#ffffff;stroke:#000000;stroke-width:0"
         d="m 542.33713,-157.70889 -1.87081,0.42768 -0.48109,2.20091 -0.53225,-2.25706 -1.81965,-0.37153 1.79534,-0.54987 0.55656,-2.07872 0.50027,2.09722 z"
         sodipodi:nodetypes="ccccccccc" /><path
         id="path22-642"
         style="fill:#ffffff;stroke:#000000;stroke-width:0"
         d="m 556.88922,-262.74847 -1.87081,0.42768 -0.48109,2.20091 -0.53225,-2.25706 -1.81965,-0.37153 1.79534,-0.54987 0.55656,-2.07872 0.50027,2.09722 z"
         sodipodi:nodetypes="ccccccccc" /><path
         id="path22-82"
         style="fill:#ffffff;stroke:#000000;stroke-width:0"
         d="m 413.48505,-289.47139 -1.87081,0.42768 -0.48109,2.20091 -0.53225,-2.25706 -1.81965,-0.37153 1.79534,-0.54987 0.55656,-2.07872 0.50027,2.09722 z"
         sodipodi:nodetypes="ccccccccc" /><path
         id="path22-3"
         style="fill:#ffffff;stroke:#000000;stroke-width:0"
         d="m 381.99963,-226.76514 -1.87081,0.42768 -0.48109,2.20091 -0.53225,-2.25706 -1.81965,-0.37153 1.79534,-0.54987 0.55656,-2.07872 0.50027,2.09722 z"
         sodipodi:nodetypes="ccccccccc" /><path
         id="path22-70"
         style="fill:#ffffff;stroke:#000000;stroke-width:0"
         d="m 478.83713,-268.30472 -1.87081,0.42768 -0.48109,2.20091 -0.53225,-2.25706 -1.81965,-0.37153 1.79534,-0.54987 0.55656,-2.07872 0.50027,2.09722 z"
         sodipodi:nodetypes="ccccccccc" /><path
         id="path22-46"
         style="fill:#ffffff;stroke:#000000;stroke-width:0"
         d="m 594.46005,-158.23806 -1.87081,0.42768 -0.48109,2.20091 -0.53225,-2.25706 -1.81965,-0.37153 1.79534,-0.54987 0.55656,-2.07872 0.50027,2.09722 z"
         sodipodi:nodetypes="ccccccccc" /><path
         id="path22-497"
         style="fill:#ffffff;stroke:#000000;stroke-width:0"
         d="m 560.06422,-70.39639 -1.87081,0.42768 -0.48109,2.20091 -0.53225,-2.25706 -1.81965,-0.37153 1.79534,-0.54987 0.55656,-2.07872 0.50027,2.09722 z"
         sodipodi:nodetypes="ccccccccc" /><path
         id="path22-83"
         style="fill:#ffffff;stroke:#000000;stroke-width:0"
         d="m 547.36422,-217.50472 -1.87081,0.42768 -0.48109,2.20091 -0.53225,-2.25706 -1.81965,-0.37153 1.79534,-0.54987 0.55656,-2.07872 0.50027,2.09722 z"
         sodipodi:nodetypes="ccccccccc" /><path
         id="path22-48"
         style="fill:#ffffff;stroke:#000000;stroke-width:0"
         d="m 480.9538,-146.59639 -1.87081,0.42768 -0.48109,2.20091 -0.53225,-2.25706 -1.81965,-0.37153 1.79534,-0.54987 0.55656,-2.07872 0.50027,2.09722 z"
         sodipodi:nodetypes="ccccccccc" /><path
         id="path22-705"
         style="fill:#ffffff;stroke:#000000;stroke-width:0"
         d="m 355.5413,-85.74222 -1.87081,0.42768 -0.48109,2.20091 -0.53225,-2.25706 -1.81965,-0.37153 1.79534,-0.54987 0.55656,-2.07872 0.50027,2.09722 z"
         sodipodi:nodetypes="ccccccccc" /><path
         id="path22-215"
         style="fill:#ffffff;stroke:#000000;stroke-width:0"
         d="m 438.88505,-79.65681 -1.87081,0.42768 -0.48109,2.20091 -0.53225,-2.25706 -1.81965,-0.37153 1.79534,-0.54987 0.55656,-2.07872 0.50027,2.09722 z"
         sodipodi:nodetypes="ccccccccc" /><path
         id="path22-219"
         style="fill:#ffffff;stroke:#000000;stroke-width:0"
         d="m 449.99755,-189.72347 -1.87081,0.42768 -0.48109,2.20091 -0.53225,-2.25706 -1.81965,-0.37153 1.79534,-0.54987 0.55656,-2.07872 0.50027,2.09722 z"
         sodipodi:nodetypes="ccccccccc" /><path
         id="path22-88"
         style="fill:#ffffff;stroke:#000000;stroke-width:0"
         d="m 380.9413,-148.97764 -1.87081,0.42768 -0.48109,2.20091 -0.53225,-2.25706 -1.81965,-0.37153 1.79534,-0.54987 0.55656,-2.07872 0.50027,2.09722 z"
         sodipodi:nodetypes="ccccccccc" /><path
         id="path22-070"
         style="fill:#ffffff;stroke:#000000;stroke-width:0"
         d="m 352.10172,-206.92139 -1.87081,0.42768 -0.48109,2.20091 -0.53225,-2.25706 -1.81965,-0.37153 1.79534,-0.54987 0.55656,-2.07872 0.50027,2.09722 z"
         sodipodi:nodetypes="ccccccccc" /><path
         id="path22-9"
         style="fill:#ffffff;stroke:#000000;stroke-width:0"
         d="m 318.76422,-278.88806 -1.87081,0.42768 -0.48109,2.20091 -0.53225,-2.25706 -1.81965,-0.37153 1.79534,-0.54987 0.55656,-2.07872 0.50027,2.09722 z"
         sodipodi:nodetypes="ccccccccc" /><path
         id="path22-12"
         style="fill:#ffffff;stroke:#000000;stroke-width:0"
         d="m 303.94755,-216.97556 -1.87081,0.42768 -0.48109,2.20091 -0.53225,-2.25706 -1.81965,-0.37153 1.79534,-0.54987 0.55656,-2.07872 0.50027,2.09722 z"
         sodipodi:nodetypes="ccccccccc" /><path
         id="path22-60"
         style="fill:#ffffff;stroke:#000000;stroke-width:0"
         d="m 446.82255,-240.25889 -1.87081,0.42768 -0.48109,2.20091 -0.53225,-2.25706 -1.81965,-0.37153 1.79534,-0.54987 0.55656,-2.07872 0.50027,2.09722 z"
         sodipodi:nodetypes="ccccccccc" /><path
         id="path22-81"
         style="fill:#ffffff;stroke:#000000;stroke-width:0"
         d="m 342.57672,-275.71306 -1.87081,0.42768 -0.48109,2.20091 -0.53225,-2.25706 -1.81965,-0.37153 1.79534,-0.54987 0.55656,-2.07872 0.50027,2.09722 z"
         sodipodi:nodetypes="ccccccccc" /><path
         id="path22-36"
         style="fill:#ffffff;stroke:#000000;stroke-width:0"
         d="m 190.4413,-115.64014 -1.87081,0.42768 -0.48109,2.20091 -0.53225,-2.25706 -1.81965,-0.37153 1.79534,-0.54987 0.55656,-2.07872 0.50027,2.09722 z"
         sodipodi:nodetypes="ccccccccc" /></g><g
       inkscape:label="Ebene 1"
       id="layer1-4-4"
       transform="translate(-425.86105,-357.64107)"><rect
         style="fill:#191919;fill-opacity:1;stroke:#000000;stroke-width:0;stroke-dasharray:none;stroke-opacity:1"
         id="rect21-1"
         width="442.71036"
         height="241.83051"
         x="162.69604"
         y="-303.80994" /><ellipse
         style="fill:#191919;fill-opacity:1;stroke:#000000;stroke-width:0;stroke-dasharray:none;stroke-opacity:1"
         id="path21-3"
         cx="222.18524"
         cy="-263.8277"
         rx="5.5338793"
         ry="6.5023079" /><path
         id="path22-33"
         style="fill:#ffffff;stroke:#000000;stroke-width:0"
         d="m 195.55345,-269.37883 -1.87081,0.42768 -0.48109,2.20091 -0.53225,-2.25706 -1.81965,-0.37153 1.79534,-0.54987 0.55656,-2.07872 0.50027,2.09722 z"
         sodipodi:nodetypes="ccccccccc" /><path
         id="path22-2-7"
         style="fill:#ffffff;stroke:#000000;stroke-width:0"
         d="m 185.14963,-251.63597 -1.87081,0.42768 -0.48109,2.20091 -0.53225,-2.25706 -1.81965,-0.37153 1.79534,-0.54987 0.55656,-2.07872 0.50027,2.09722 z"
         sodipodi:nodetypes="ccccccccc" /><path
         id="path22-5-4"
         style="fill:#ffffff;stroke:#000000;stroke-width:0"
         d="m 270.53406,-267.47265 -1.87081,0.42768 -0.48109,2.20091 -0.53225,-2.25706 -1.81965,-0.37153 1.79534,-0.54987 0.55656,-2.07872 0.50027,2.09722 z"
         sodipodi:nodetypes="ccccccccc" /><path
         id="path22-7-2"
         style="fill:#ffffff;stroke:#000000;stroke-width:0"
         d="m 247.06213,-220.15056 -1.87081,0.42768 -0.48109,2.20091 -0.53225,-2.25706 -1.81965,-0.37153 1.79534,-0.54987 0.55656,-2.07872 0.50027,2.09722 z"
         sodipodi:nodetypes="ccccccccc" /><path
         id="path22-1-7"
         style="fill:#ffffff;stroke:#000000;stroke-width:0"
         d="m 230.92255,-173.31931 -1.87081,0.42768 -0.48109,2.20091 -0.53225,-2.25706 -1.81965,-0.37153 1.79534,-0.54987 0.55656,-2.07872 0.50027,2.09722 z"
         sodipodi:nodetypes="ccccccccc" /><path
         id="path22-6-6"
         style="fill:#ffffff;stroke:#000000;stroke-width:0"
         d="m 367.71213,-238.40681 -1.87081,0.42768 -0.48109,2.20091 -0.53225,-2.25706 -1.81965,-0.37153 1.79534,-0.54987 0.55656,-2.07872 0.50027,2.09722 z"
         sodipodi:nodetypes="ccccccccc" /><path
         id="path22-4-9"
         style="fill:#ffffff;stroke:#000000;stroke-width:0"
         d="m 488.09755,-213.53597 -1.87081,0.42768 -0.48109,2.20091 -0.53225,-2.25706 -1.81965,-0.37153 1.79534,-0.54987 0.55656,-2.07872 0.50027,2.09722 z"
         sodipodi:nodetypes="ccccccccc" /><path
         id="path22-21-0"
         style="fill:#ffffff;stroke:#000000;stroke-width:0"
         d="m 484.39338,-120.66722 -1.87081,0.42768 -0.48109,2.20091 -0.53225,-2.25706 -1.81965,-0.37153 1.79534,-0.54987 0.55656,-2.07872 0.50027,2.09722 z"
         sodipodi:nodetypes="ccccccccc" /><path
         id="path22-24-4"
         style="fill:#ffffff;stroke:#000000;stroke-width:0"
         d="m 234.8913,-115.64014 -1.87081,0.42768 -0.48109,2.20091 -0.53225,-2.25706 -1.81965,-0.37153 1.79534,-0.54987 0.55656,-2.07872 0.50027,2.09722 z"
         sodipodi:nodetypes="ccccccccc" /><path
         id="path22-0-9"
         style="fill:#ffffff;stroke:#000000;stroke-width:0"
         d="m 309.5038,-171.46722 -1.87081,0.42768 -0.48109,2.20091 -0.53225,-2.25706 -1.81965,-0.37153 1.79534,-0.54987 0.55656,-2.07872 0.50027,2.09722 z"
         sodipodi:nodetypes="ccccccccc" /><path
         id="path22-64-1"
         style="fill:#ffffff;stroke:#000000;stroke-width:0"
         d="m 412.95588,-189.72347 -1.87081,0.42768 -0.48109,2.20091 -0.53225,-2.25706 -1.81965,-0.37153 1.79534,-0.54987 0.55656,-2.07872 0.50027,2.09722 z"
         sodipodi:nodetypes="ccccccccc" /><path
         id="path22-20-0"
         style="fill:#ffffff;stroke:#000000;stroke-width:0"
         d="m 411.36838,-136.80681 -1.87081,0.42768 -0.48109,2.20091 -0.53225,-2.25706 -1.81965,-0.37153 1.79534,-0.54987 0.55656,-2.07872 0.50027,2.09722 z"
         sodipodi:nodetypes="ccccccccc" /><path
         id="path22-67-9"
         style="fill:#ffffff;stroke:#000000;stroke-width:0"
         d="m 275.10797,-103.99847 -1.87081,0.42768 -0.48109,2.20091 -0.53225,-2.25706 -1.81965,-0.37153 1.79534,-0.54987 0.55656,-2.07872 0.50027,2.09722 z"
         sodipodi:nodetypes="ccccccccc" /><path
         id="path22-43-4"
         style="fill:#ffffff;stroke:#000000;stroke-width:0"
         d="m 354.21838,-167.23389 -1.87081,0.42768 -0.48109,2.20091 -0.53225,-2.25706 -1.81965,-0.37153 1.79534,-0.54987 0.55656,-2.07872 0.50027,2.09722 z"
         sodipodi:nodetypes="ccccccccc" /><path
         id="path22-8-7"
         style="fill:#ffffff;stroke:#000000;stroke-width:0"
         d="m 347.6038,-112.46514 -1.87081,0.42768 -0.48109,2.20091 -0.53225,-2.25706 -1.81965,-0.37153 1.79534,-0.54987 0.55656,-2.07872 0.50027,2.09722 z"
         sodipodi:nodetypes="ccccccccc" /><path
         id="path22-49-7"
         style="fill:#ffffff;stroke:#000000;stroke-width:0"
         d="m 492.59547,-108.49639 -1.87081,0.42768 -0.48109,2.20091 -0.53225,-2.25706 -1.81965,-0.37153 1.79534,-0.54987 0.55656,-2.07872 0.50027,2.09722 z"
         sodipodi:nodetypes="ccccccccc" /><path
         id="path22-07-8"
         style="fill:#ffffff;stroke:#000000;stroke-width:0"
         d="m 542.33713,-157.70889 -1.87081,0.42768 -0.48109,2.20091 -0.53225,-2.25706 -1.81965,-0.37153 1.79534,-0.54987 0.55656,-2.07872 0.50027,2.09722 z"
         sodipodi:nodetypes="ccccccccc" /><path
         id="path22-642-0"
         style="fill:#ffffff;stroke:#000000;stroke-width:0"
         d="m 556.88922,-262.74847 -1.87081,0.42768 -0.48109,2.20091 -0.53225,-2.25706 -1.81965,-0.37153 1.79534,-0.54987 0.55656,-2.07872 0.50027,2.09722 z"
         sodipodi:nodetypes="ccccccccc" /><path
         id="path22-82-2"
         style="fill:#ffffff;stroke:#000000;stroke-width:0"
         d="m 413.48505,-289.47139 -1.87081,0.42768 -0.48109,2.20091 -0.53225,-2.25706 -1.81965,-0.37153 1.79534,-0.54987 0.55656,-2.07872 0.50027,2.09722 z"
         sodipodi:nodetypes="ccccccccc" /><path
         id="path22-3-8"
         style="fill:#ffffff;stroke:#000000;stroke-width:0"
         d="m 381.99963,-226.76514 -1.87081,0.42768 -0.48109,2.20091 -0.53225,-2.25706 -1.81965,-0.37153 1.79534,-0.54987 0.55656,-2.07872 0.50027,2.09722 z"
         sodipodi:nodetypes="ccccccccc" /><path
         id="path22-70-9"
         style="fill:#ffffff;stroke:#000000;stroke-width:0"
         d="m 478.83713,-268.30472 -1.87081,0.42768 -0.48109,2.20091 -0.53225,-2.25706 -1.81965,-0.37153 1.79534,-0.54987 0.55656,-2.07872 0.50027,2.09722 z"
         sodipodi:nodetypes="ccccccccc" /><path
         id="path22-46-9"
         style="fill:#ffffff;stroke:#000000;stroke-width:0"
         d="m 594.46005,-158.23806 -1.87081,0.42768 -0.48109,2.20091 -0.53225,-2.25706 -1.81965,-0.37153 1.79534,-0.54987 0.55656,-2.07872 0.50027,2.09722 z"
         sodipodi:nodetypes="ccccccccc" /><path
         id="path22-497-0"
         style="fill:#ffffff;stroke:#000000;stroke-width:0"
         d="m 560.06422,-70.39639 -1.87081,0.42768 -0.48109,2.20091 -0.53225,-2.25706 -1.81965,-0.37153 1.79534,-0.54987 0.55656,-2.07872 0.50027,2.09722 z"
         sodipodi:nodetypes="ccccccccc" /><path
         id="path22-83-7"
         style="fill:#ffffff;stroke:#000000;stroke-width:0"
         d="m 547.36422,-217.50472 -1.87081,0.42768 -0.48109,2.20091 -0.53225,-2.25706 -1.81965,-0.37153 1.79534,-0.54987 0.55656,-2.07872 0.50027,2.09722 z"
         sodipodi:nodetypes="ccccccccc" /><path
         id="path22-48-5"
         style="fill:#ffffff;stroke:#000000;stroke-width:0"
         d="m 480.9538,-146.59639 -1.87081,0.42768 -0.48109,2.20091 -0.53225,-2.25706 -1.81965,-0.37153 1.79534,-0.54987 0.55656,-2.07872 0.50027,2.09722 z"
         sodipodi:nodetypes="ccccccccc" /><path
         id="path22-705-1"
         style="fill:#ffffff;stroke:#000000;stroke-width:0"
         d="m 355.5413,-85.74222 -1.87081,0.42768 -0.48109,2.20091 -0.53225,-2.25706 -1.81965,-0.37153 1.79534,-0.54987 0.55656,-2.07872 0.50027,2.09722 z"
         sodipodi:nodetypes="ccccccccc" /><path
         id="path22-215-1"
         style="fill:#ffffff;stroke:#000000;stroke-width:0"
         d="m 438.88505,-79.65681 -1.87081,0.42768 -0.48109,2.20091 -0.53225,-2.25706 -1.81965,-0.37153 1.79534,-0.54987 0.55656,-2.07872 0.50027,2.09722 z"
         sodipodi:nodetypes="ccccccccc" /><path
         id="path22-219-7"
         style="fill:#ffffff;stroke:#000000;stroke-width:0"
         d="m 449.99755,-189.72347 -1.87081,0.42768 -0.48109,2.20091 -0.53225,-2.25706 -1.81965,-0.37153 1.79534,-0.54987 0.55656,-2.07872 0.50027,2.09722 z"
         sodipodi:nodetypes="ccccccccc" /><path
         id="path22-88-4"
         style="fill:#ffffff;stroke:#000000;stroke-width:0"
         d="m 380.9413,-148.97764 -1.87081,0.42768 -0.48109,2.20091 -0.53225,-2.25706 -1.81965,-0.37153 1.79534,-0.54987 0.55656,-2.07872 0.50027,2.09722 z"
         sodipodi:nodetypes="ccccccccc" /><path
         id="path22-070-1"
         style="fill:#ffffff;stroke:#000000;stroke-width:0"
         d="m 352.10172,-206.92139 -1.87081,0.42768 -0.48109,2.20091 -0.53225,-2.25706 -1.81965,-0.37153 1.79534,-0.54987 0.55656,-2.07872 0.50027,2.09722 z"
         sodipodi:nodetypes="ccccccccc" /><path
         id="path22-9-4"
         style="fill:#ffffff;stroke:#000000;stroke-width:0"
         d="m 318.76422,-278.88806 -1.87081,0.42768 -0.48109,2.20091 -0.53225,-2.25706 -1.81965,-0.37153 1.79534,-0.54987 0.55656,-2.07872 0.50027,2.09722 z"
         sodipodi:nodetypes="ccccccccc" /><path
         id="path22-12-7"
         style="fill:#ffffff;stroke:#000000;stroke-width:0"
         d="m 303.94755,-216.97556 -1.87081,0.42768 -0.48109,2.20091 -0.53225,-2.25706 -1.81965,-0.37153 1.79534,-0.54987 0.55656,-2.07872 0.50027,2.09722 z"
         sodipodi:nodetypes="ccccccccc" /><path
         id="path22-60-0"
         style="fill:#ffffff;stroke:#000000;stroke-width:0"
         d="m 446.82255,-240.25889 -1.87081,0.42768 -0.48109,2.20091 -0.53225,-2.25706 -1.81965,-0.37153 1.79534,-0.54987 0.55656,-2.07872 0.50027,2.09722 z"
         sodipodi:nodetypes="ccccccccc" /><path
         id="path22-81-2"
         style="fill:#ffffff;stroke:#000000;stroke-width:0"
         d="m 342.57672,-275.71306 -1.87081,0.42768 -0.48109,2.20091 -0.53225,-2.25706 -1.81965,-0.37153 1.79534,-0.54987 0.55656,-2.07872 0.50027,2.09722 z"
         sodipodi:nodetypes="ccccccccc" /><path
         id="path22-36-1"
         style="fill:#ffffff;stroke:#000000;stroke-width:0"
         d="m 190.4413,-115.64014 -1.87081,0.42768 -0.48109,2.20091 -0.53225,-2.25706 -1.81965,-0.37153 1.79534,-0.54987 0.55656,-2.07872 0.50027,2.09722 z"
         sodipodi:nodetypes="ccccccccc" /></g></g></svg>
